<?xml version="1.0" encoding="utf-8"?>
<!-- Generator: Adobe Illustrator 18.0.0, SVG Export Plug-In . SVG Version: 6.00 Build 0)  -->
<!DOCTYPE svg PUBLIC "-//W3C//DTD SVG 1.1//EN" "http://www.w3.org/Graphics/SVG/1.1/DTD/svg11.dtd">
<svg version="1.1" id="Layer_1" xmlns="http://www.w3.org/2000/svg" xmlns:xlink="http://www.w3.org/1999/xlink" x="0px" y="0px"
	 viewBox="0 0 373.7 77.8" enable-background="new 0 0 373.7 77.8" xml:space="preserve">
<g enable-background="new    ">
	<path fill="#FFFFFF" d="M5.8,54.5C2.7,53.4,0,49.9,0,46c0-4.6,2.5-22.8,5.6-34.8C4,9.8,1.9,7.3,1.9,6.1c0-1.3,2.6-2.7,6.4-3.4
		C9.1,1.1,9.9,0,10.7,0c0.8,0,3.2,1.2,4.8,2h0.2c13.2,0,21.1,6.7,21.1,13.9c0,7.7-8.3,13.8-17,16.7C26.5,33.8,33,36.7,33,43
		c0,8.8-13.1,14.8-20.2,14.8C9.7,57.8,7,56.8,5.8,54.5z M9.3,35c-0.9,5.5-1.6,10.9-1.7,15.7C8,50.8,8.4,50.8,9,50.8
		c7.2,0,16.6-6.6,16.6-10.5c0-2.6-3.7-4-8.1-4c-1.7,0-3.5,0.2-5.2,0.5C10.7,36.4,9.8,35.7,9.3,35z M21,8.5c-1.9,0-4,0.2-5.8,0.4
		c-1.5,5-3.4,12.7-5,20.7c8.3-2.9,20.6-10.6,20.6-17C30.4,9.1,25.7,8.5,21,8.5z"/>
	<path fill="#FFFFFF" d="M46.7,46.8c-0.3-3.4,1.4-14.3,3.9-19c-2,0.4-3.8,0.5-5.4,0.4C44.5,31.9,41.1,49,39,49
		c-2.4,0-4.3-1.9-4.4-3.8c1.6,1.3,5.8-12.5,7.3-17.5c-2.7-0.9-4.2-2.7-4.2-5.1c0-3,1.9-8,4.6-8c2.1,0,5.3,1.3,6.6,3.2
		c-0.6,0.4-2.2,4.5-3.1,6.9c2.5,0,6-1.5,6.7-1.8c1.7,0,7.3,3.5,7.5,5c-1.1,1.9-5.5,12.8-5.5,18.4c0,2.1,0.4,3,1.2,3
		c3.7,0,9.6-15.8,9.6-15.8h0.3c0.7,0,2.2,0.7,2.2,1.2c0.1,0.6-5.8,19.6-13.1,19.6C52.1,54.4,47.1,52.4,46.7,46.8z"/>
	<path fill="#FFFFFF" d="M96.5,33.7h0.3c0.7,0,2.1,0.6,2.1,1.2C99,35.4,94,53.7,86.6,53.7c-4.8,0-7.8-3.5-8.2-7.9
		c-0.1-0.2-0.1-0.4-0.1-0.6c-1.8,5.8-4.2,10.4-8.3,10.4c-3,0-7.7-2.8-8.5-9.5c-1-8.9,3.6-26.6,12.9-26.6c3.7,0,13.6,5,11.4,9.1
		L85.6,29c1.7,0.8,3.3,2.1,3.9,3.8c-2.4,6.8-4.1,15.9-1.8,15.9C91.4,48.6,96.5,33.7,96.5,33.7z M80.4,29.5c-0.5-3.3-1.4-4.9-2.8-4.9
		c-5.9,0-10.4,25.5-6.6,25.5C73.7,50.1,78.5,35.7,80.4,29.5z"/>
	<path fill="#FFFFFF" d="M106.6,58.3c1.1-3.5,1.9-7.4,2.7-11.1c-1.7,4.8-4,8.3-7.6,8.3c-3,0-7.7-2.8-8.5-9.5
		c-1-8.9,3.6-26.6,12.9-26.6c3.7,0,13.6,5,11.4,9.1c-0.2,0.3-0.4,0.4-0.6,0.5c1.6,1,2.9,2.2,3.2,3.1c0.1,1.6-1.2,11.4-4.1,21.5
		c4.8-5,9.8-14.6,11.7-20.6c1.2-0.1,2.4,1,2.3,1.4c-1.7,8.9-9.5,22.4-15.9,25.3c-3.5,9.6-8.7,17.9-15.9,17.9c-6,0-12.7-5.8-13-11.3
		C84,56.2,96.7,59.3,106.6,58.3z M105.4,62.2c-8.5,0.7-13.6-1-13.4,4.3c0.1,2.9,2.4,6.5,5.2,6.5C100.5,72.9,103.2,68.4,105.4,62.2z
		 M112,29.6c-0.5-3.4-1.3-5-2.7-5c-5.9,0-10.4,25.5-6.6,25.5C105.3,50.1,110.1,35.7,112,29.6z"/>
	<path fill="#FFFFFF" d="M158.7,33.7h0.3c0.7,0,2.1,0.6,2.1,1.2c0.1,0.6-4.9,18.9-12.2,18.9c-4.8,0-7.8-3.5-8.2-7.9
		c-0.1-0.2-0.1-0.4-0.1-0.6c-1.8,5.8-4.2,10.4-8.3,10.4c-3,0-7.7-2.8-8.5-9.5c-1-8.9,3.6-26.6,12.9-26.6c3.7,0,13.6,5,11.4,9.1
		l-0.3,0.4c1.7,0.8,3.3,2.1,3.9,3.8c-2.4,6.8-4.1,15.9-1.8,15.9C153.7,48.6,158.7,33.7,158.7,33.7z M142.7,29.5
		c-0.5-3.3-1.4-4.9-2.8-4.9c-5.9,0-10.4,25.5-6.6,25.5C136,50.1,140.8,35.7,142.7,29.5z"/>
	<path fill="#FFFFFF" d="M190,33.7c0.7-0.2,2.5,0.5,2.4,1.2c-0.1,1.6-5.4,19.9-12.1,19.9c-4.9,0-8.5-3.5-9-7.9
		c-0.6-5.8,1.9-14.5,3.1-19.1c0.5-1.9-0.4-2-1.9-0.1c-2.7,4-8.6,13.8-9.4,25.2c-4.1,0-7.4-2.8-7.8-6.6c-0.6-6.5,2.6-24,4.3-24
		c1.7,0,5.2,0.4,7.7,2.7c-0.8,1.9-2.4,6.8-3.5,11.9c3.5-8.5,9-16.7,10.8-16.7c3.9,0,9.7,5,9.7,6.6c-1.5,2.7-7.8,22.9-3.6,22.9
		C184.3,49.7,190,33.7,190,33.7z"/>
	<path fill="#FFFFFF" d="M194.4,55.8c-5.9-1.3-8.4-7.4-8.4-13.8c0-9.7,5.8-21.5,11.7-21.5c1.2,0,2.5,0.4,3.8,1.1
		c0.7-0.5,1.6-1,2.5-1c2.1,0,4.8,3.1,5,6.2c0,6.9-4.2,11.8-7.4,11.8c-0.9,0-1.9-0.4-2.5-1.4c1.2-0.1,3.8-4.9,3.8-8.9
		c0-0.9-0.2-1.9-0.4-2.8c-3.4,0.9-8,10.4-8,18.1c0,3.7,1.1,7.6,5,7.6c6.6,0,12.5-11.3,14.5-17.5c1.3,0,2.3,0.9,2.5,1.5
		c0,0-4.7,17.8-16.3,20.6c4.3,3.4,2.7,14.9-6.6,14.9c-4.8,0-6-3-6-4.5c0-0.5,0.2-0.9,0.4-0.9c0.7,0.6,1.7,0.8,2.6,0.8
		c3.2,0,7-2.2,7-4.6c0-1.8-2.1-1.9-3-2.1C193,58.9,193.1,57.1,194.4,55.8z"/>
	<path fill="#FFFFFF" d="M245.1,33.7h0.3c0.7,0,2.1,0.6,2.1,1.2c0.1,0.6-4.9,18.9-12.2,18.9c-4.8,0-7.8-3.5-8.2-7.9
		c-0.1-0.2-0.1-0.4-0.1-0.6c-1.8,5.8-4.2,10.4-8.3,10.4c-3,0-7.7-2.8-8.5-9.5c-1-8.9,3.6-26.6,12.9-26.6c3.7,0,13.6,5,11.4,9.1
		l-0.3,0.4c1.7,0.8,3.3,2.1,3.9,3.8c-2.4,6.8-4.1,15.9-1.8,15.9C240.1,48.6,245.1,33.7,245.1,33.7z M229.1,29.5
		c-0.5-3.3-1.4-4.9-2.8-4.9c-5.9,0-10.4,25.5-6.6,25.5C222.4,50.1,227.1,35.7,229.1,29.5z"/>
	<path fill="#FFFFFF" d="M272.6,3.6c0.6-1.8,1.2-2.8,1.6-2.8c1.8,0,4.6,1.2,6.3,2.3c6.2-0.4,11.6-0.8,12.9-0.8
		c2.5,0,3.5,5.5,2.3,8.9c-0.6-0.9-8.2-0.8-16.3-0.4c-3.1,12.1-7.5,37.4-6.3,45.6c-2.1,1-8.3-1.4-8.7-3.9c-0.4-4.3,3-27.5,6.1-41.3
		c-4.6,0.3-8.4,0.4-10,0.4c-5,0-4.3-7.1-3.7-7.9C258,4.3,265,4.1,272.6,3.6z"/>
	<path fill="#FFFFFF" d="M307,46.2c-2.1,5.8-6,10.3-11.6,10.3c-8.1,0-11.6-7.8-11.6-14.4c0-8.2,3.9-17.4,7-17.4h0.2
		c0.7-2.3,2.7-3.8,4.6-3.8c3.8,0,8.9,3.4,10,4.3c2.2,1.9,3.3,5.8,3.3,10.4c0,2-0.3,4.2-0.6,6.2c3.2-1,5.9-3.9,7.4-8.7
		c0.1-0.4,2.3,0.6,2.3,1.5C316.8,41,312.1,45.3,307,46.2z M292.4,40.3c-0.4,2.1-0.7,4.3-0.7,6.1c0,3.3,0.8,5.6,2.7,5.6
		c1.9,0,3.8-2.7,5.2-6.4C296.8,44.6,294.4,42.9,292.4,40.3z M301,41.4c0.8-3.2,1.3-6.6,1.3-9.5c0-3.8-0.9-6.6-2.9-6.6
		c-0.9,0-1.9,0.5-2.9,1.4c1.1,0.5,1.9,1.2,1.9,1.8c0,0.2,0,0.3-0.2,0.4c-1.4,0.6-2.8,2.7-3.9,5.4C296,37.7,298.2,40.1,301,41.4z"/>
	<path fill="#FFFFFF" d="M328.2,46.8c-0.1-0.7-0.1-1.9-0.1-3.3c-1.9,5-4.5,9.3-8.3,9.3c-4.7,0-7.3-3.3-7.9-7.5
		c-0.8-5.8,3.2-25.7,5.7-25.7c2.1,0,6.1,1.6,7.3,3.4c-1.1,1.9-5.8,18.2-5.1,22.9c0.1,1,0.4,1.4,1,1.4c2.9,0,7.6-13.9,9.5-19.9
		c0.7-3.2,1.7-5.5,2.9-5.5c1.2,0,5.8,0.5,7.1,2.4c-1.1,1.9-4.2,16.4-4.2,22.1c0,2.1,0.4,3,1.2,3c3.5,0,8.8-15.7,8.8-15.7h0.3
		c0.7,0,2.1,0.6,2.1,1.2c0.1,0.6-4.9,19.6-12.2,19.6C333.6,54.4,328.7,52.4,328.2,46.8z"/>
	<path fill="#FFFFFF" d="M352,46.8c-0.3-3.4,1.4-14.3,3.9-19c-2.1,0.4-3.9,0.5-5.4,0.4l-2.8,9.2c-0.6,0.5-2.2-0.2-2.3-2
		c0.4-1.2,1.5-4.8,2.4-7.6c-2.7-0.9-4.1-2.7-4.1-5.2c0-3,1.9-8,4.6-8c2.1,0,4.6,1.3,5.8,3.2c-0.6,0.4-2.2,4.5-3.1,6.9
		c2.5,0,6-1.5,6.7-1.8c1.7,0,7.3,3.5,7.5,5c-1.1,1.9-5.5,12.8-5.5,18.4c0,2.1,1.1,3,1.9,3c3.7,0,9.6-15.8,9.6-15.8h0.3
		c0.7,0,2.1,0.7,2.1,1.2c0.1,0.6-5.7,19.6-13,19.6C357.2,54.4,352.5,52.4,352,46.8z"/>
</g>
</svg>
